# xmcd CD database file
#
# Track frame offsets:
#	150
#	14777
#	30259
#	45919
#	58618
#	71915
#	84987
#	96326
#	110571
#	126795
#	135944
#	151446
#	162838
#	175093
#	186815
#	196382
#
# Disc length: 2804 seconds
#
# Revision: 0
# Processed by: cddbd v1.5.1PL2 Copyright (c) Steve Scherf et al.
# Submitted via: CDex 1.50
#
DISCID=cf0af210
DTITLE=Benny Goodman - Body and Soul
DYEAR=2005
DGENRE=Jazz
TTITLE0=Who?
TTITLE1=Good-bye
TTITLE2=Body ans soul
TTITLE3=Someday, sweet heart
TTITLE4=Basin street blues
TTITLE5=Startdust
TTITLE6=Yankee doodle never went to down
TTITLE7=Santa claus came in string
TTITLE8=Christopher columbus
TTITLE9=Eeny meeny miney mo
TTITLE10=It's been so long
TTITLE11=Brakin' in a pair of shoes
TTITLE12=No other one
TTITLE13=You can't pull the wool over my eyes
TTITLE14=I know that you know
TTITLE15=Get Happy
EXTD=YEAR: 2005
EXTT0=
EXTT1=
EXTT2=
EXTT3=
EXTT4=
EXTT5=
EXTT6=
EXTT7=
EXTT8=
EXTT9=
EXTT10=
EXTT11=
EXTT12=
EXTT13=
EXTT14=
EXTT15=
PLAYORDER=
